<svg preserveAspectRatio="none" width="100%" height="100%" overflow="visible" style="display: block;" viewBox="0 0 39.9734 13.9648" fill="none" xmlns="http://www.w3.org/2000/svg">
<path id="Union" d="M5.01758 6.28906C5.05495 6.28909 5.09164 6.30048 5.12305 6.32031C5.13551 6.3282 5.14762 6.33707 5.1582 6.34766C5.36517 6.55498 6.08588 7.27856 6.80859 8.0127C6.8483 8.05302 6.889 8.09346 6.92871 8.13379C6.94891 8.15424 6.96919 8.17486 6.98926 8.19531C7.02884 8.23564 7.06908 8.27635 7.1084 8.31641V8.31738C7.20737 8.41822 7.30557 8.51799 7.40039 8.61523C7.74225 8.96598 8.04932 9.28459 8.25684 9.50781C8.32267 9.57865 8.38866 9.64835 8.4541 9.7168C8.49753 9.76226 8.54094 9.8076 8.58398 9.85254C8.60615 9.87567 8.62836 9.89972 8.65039 9.92285C8.6927 9.9673 8.73569 10.0119 8.77734 10.0566C8.79824 10.0791 8.81907 10.1024 8.83984 10.125C8.87071 10.1586 8.90214 10.1925 8.93262 10.2266C8.9542 10.2507 8.97574 10.2754 8.99707 10.2998C9.01594 10.3215 9.03497 10.3441 9.05371 10.3662C9.07528 10.3917 9.09698 10.4175 9.11816 10.4434L9.21973 10.5703C9.23357 10.5882 9.24715 10.6068 9.26074 10.625C9.27407 10.6429 9.28797 10.6614 9.30078 10.6797L9.3418 10.7412C9.34406 10.7447 9.34637 10.7485 9.34863 10.752C9.36052 10.7702 9.37242 10.7889 9.38379 10.8076C9.38698 10.8127 9.3905 10.818 9.39355 10.8232C9.40215 10.8377 9.4106 10.8526 9.41895 10.8672C9.42211 10.8725 9.42568 10.8783 9.42871 10.8838C9.43899 10.9024 9.44922 10.9216 9.45898 10.9404C9.46153 10.9456 9.46412 10.9519 9.4668 10.957C9.47424 10.9715 9.4822 10.9864 9.48926 11.001C9.4925 11.0077 9.4959 11.0147 9.49902 11.0215C9.5069 11.0383 9.51497 11.0562 9.52246 11.0732C9.52509 11.0793 9.52763 11.0857 9.53027 11.0918C9.53703 11.1075 9.54354 11.1238 9.5498 11.1396C9.55289 11.1474 9.55649 11.1562 9.55957 11.1641C9.56497 11.1778 9.57018 11.1921 9.5752 11.2061C9.57762 11.2128 9.5806 11.2198 9.58301 11.2266C9.58955 11.2454 9.59552 11.2651 9.60156 11.2842C9.60412 11.2924 9.60682 11.3013 9.60938 11.3096C9.61351 11.3227 9.61833 11.3364 9.62207 11.3496C9.62443 11.3575 9.62666 11.366 9.62891 11.374C9.6293 11.3754 9.62954 11.3775 9.62988 11.3789C9.63441 11.3959 9.63942 11.4136 9.64355 11.4307C9.64509 11.4373 9.64691 11.4444 9.64844 11.4512C9.65268 11.4694 9.65642 11.4883 9.66016 11.5068C9.66114 11.5112 9.66223 11.5161 9.66309 11.5205C9.66683 11.5394 9.6706 11.5591 9.67383 11.5781C9.67472 11.5833 9.67588 11.5886 9.67676 11.5938C9.68021 11.6146 9.68285 11.6362 9.68555 11.6572C9.68606 11.6615 9.687 11.6666 9.6875 11.6709C9.69034 11.6933 9.69324 11.7167 9.69531 11.7393C9.69918 11.7827 9.7017 11.8283 9.70312 11.874C9.70414 11.9038 9.70435 11.9343 9.7041 11.9648V11.9658C9.70013 12.3888 9.57409 12.8908 9.14648 13.3525C8.77466 13.7537 8.24758 13.9648 7.70801 13.9648H0.143555C0.127453 13.9648 0.112098 13.962 0.0976562 13.957C0.0791992 13.9505 0.0620869 13.94 0.0478516 13.9268C0.0446052 13.9237 0.0411002 13.9203 0.0380859 13.917C0.017921 13.8945 0.00431969 13.8651 0.000976562 13.833C0.000469505 13.8282 2.17481e-05 13.8223 0 13.8174V11.4854C1.17005e-06 11.4754 0.00107979 11.4654 0.00292969 11.4561C0.0038172 11.4514 0.00543518 11.446 0.00683594 11.4414C0.0113464 11.4262 0.0185373 11.4121 0.0273438 11.3994C0.053468 11.3624 0.0955952 11.3379 0.143555 11.3379H5.81738C5.82777 11.3379 5.83781 11.3361 5.84668 11.333C5.90262 11.3128 5.92493 11.2358 5.87891 11.1875L3.00195 8.18457L1.5625 6.68262L1.49707 6.61426L1.2334 6.33887C1.21607 6.32022 1.2287 6.28922 1.25391 6.28906H5.01758ZM27.7891 3.10547C28.3867 3.10547 28.7526 3.29066 28.9766 3.5166C29.3256 3.86902 29.3301 4.32031 29.3301 4.32031V9.17969C29.336 9.52398 29.1618 9.86269 28.9014 10.1191C28.8763 10.1439 28.8509 10.1683 28.8242 10.1914C28.8065 10.2068 28.7879 10.2217 28.7695 10.2363C28.7511 10.2511 28.7318 10.2654 28.7129 10.2793C28.475 10.4528 28.1941 10.562 27.9189 10.5654H23.3652V13.8164C23.3652 13.8267 23.3641 13.8371 23.3623 13.8467C23.3605 13.8561 23.3581 13.8654 23.3545 13.874C23.3406 13.9077 23.3144 13.9349 23.2822 13.9502C23.2639 13.9589 23.2433 13.9639 23.2217 13.9639H20.7041C20.6826 13.9638 20.6618 13.959 20.6436 13.9502C20.6116 13.9349 20.5861 13.9075 20.5723 13.874C20.5687 13.8653 20.5653 13.8561 20.5635 13.8467C20.5617 13.8371 20.5605 13.8265 20.5605 13.8164V6.28809H23.2217C23.2794 6.28809 23.3297 6.32255 23.3525 6.37305C23.3609 6.3917 23.3652 6.41276 23.3652 6.43457V7.87207C23.3652 7.92086 23.4046 7.96094 23.4521 7.96094H26.3281C26.3756 7.96083 26.4141 7.92079 26.4141 7.87207V5.84082C26.4135 5.83513 26.4118 5.82966 26.4102 5.82422C26.4044 5.80529 26.3925 5.78841 26.377 5.77734L26.374 5.77637C26.3682 5.77266 26.3621 5.76886 26.3555 5.7666C26.3468 5.76361 26.3377 5.76174 26.3281 5.76172H20.5605V3.25293C20.5605 3.24267 20.5617 3.23225 20.5635 3.22266C20.5653 3.21308 20.5686 3.20409 20.5723 3.19531C20.594 3.14242 20.6446 3.1055 20.7041 3.10547H27.7891ZM35.625 13.8164C35.6248 13.8974 35.5605 13.9638 35.4814 13.9639H32.9639C32.9424 13.9639 32.9215 13.9589 32.9033 13.9502C32.8714 13.9349 32.8459 13.9074 32.832 13.874C32.8285 13.8654 32.8251 13.856 32.8232 13.8467C32.8214 13.8372 32.8203 13.8264 32.8203 13.8164V5.8418C32.8198 5.8361 32.818 5.82969 32.8164 5.82422C32.8086 5.7985 32.7889 5.77816 32.7646 5.76855C32.7552 5.76491 32.745 5.76272 32.7344 5.7627H30.2109C30.1319 5.76266 30.0677 5.69626 30.0674 5.61523V3.25293C30.0674 3.21095 30.0849 3.1733 30.1123 3.14648L30.1426 3.12305C30.1487 3.11958 30.1555 3.11666 30.1621 3.11426C30.1774 3.10855 30.1938 3.10548 30.2109 3.10547H35.625V13.8164ZM18.0068 3.10156C18.2695 3.10236 18.515 3.16852 18.7246 3.28516C18.7533 3.30105 18.7814 3.31807 18.8086 3.33594C18.8113 3.33767 18.8145 3.33993 18.8174 3.3418C18.8293 3.34962 18.8409 3.358 18.8525 3.36621C18.8603 3.37176 18.8682 3.37713 18.876 3.38281C19.177 3.60662 19.3792 3.94949 19.4131 4.35645H19.4141V12.4668C19.4229 13.3247 18.7273 13.9734 17.9346 13.9629H12.0352C11.5789 13.969 11.1549 13.7561 10.8789 13.4111C10.8683 13.398 10.8577 13.3846 10.8477 13.3711C10.8165 13.3293 10.7875 13.2856 10.7607 13.2402C10.7557 13.2317 10.7499 13.2225 10.7451 13.2139C10.7386 13.2023 10.7319 13.1906 10.7256 13.1787C10.7201 13.1684 10.7152 13.1579 10.71 13.1475C10.6888 13.1048 10.6695 13.0606 10.6523 13.0156C10.6424 12.9894 10.6335 12.9626 10.625 12.9355C10.6227 12.9281 10.6204 12.9205 10.6182 12.9131C10.6131 12.896 10.6081 12.8788 10.6035 12.8613C10.6019 12.8552 10.6002 12.8489 10.5986 12.8428C10.5941 12.824 10.5898 12.8044 10.5859 12.7852C10.5849 12.7803 10.5839 12.7754 10.583 12.7705C10.5642 12.6728 10.5546 12.5706 10.5557 12.4658V6.28809H12.9609C12.9955 6.28816 13.027 6.30128 13.0518 6.32227C13.0553 6.32519 13.0593 6.32774 13.0625 6.33105C13.0744 6.34328 13.0837 6.35822 13.0908 6.37402C13.0992 6.39277 13.1045 6.41362 13.1045 6.43555V11.249C13.1045 11.2592 13.1063 11.2692 13.1094 11.2783C13.1137 11.2907 13.1209 11.3023 13.1299 11.3115C13.1349 11.3166 13.1403 11.3214 13.1465 11.3252C13.1473 11.3257 13.1485 11.3256 13.1494 11.3262C13.1616 11.333 13.1756 11.3369 13.1904 11.3369H16.7783C16.802 11.3369 16.8243 11.3274 16.8398 11.3115C16.8554 11.2956 16.8651 11.2733 16.8652 11.249V5.85156C16.8652 5.82277 16.8519 5.7964 16.8311 5.78027C16.8277 5.7777 16.8241 5.77552 16.8203 5.77344C16.8179 5.77212 16.8151 5.77059 16.8125 5.76953C16.8022 5.76513 16.7903 5.7627 16.7783 5.7627H10.5625V4.38184C10.5626 4.37353 10.5628 4.36475 10.5635 4.35645C10.5876 4.06699 10.6968 3.81018 10.8662 3.60547L10.9424 3.52051C10.9563 3.50638 10.9708 3.49198 10.9854 3.47852C11.0011 3.46379 11.0176 3.44948 11.0342 3.43555C11.0456 3.42587 11.0576 3.41651 11.0693 3.40723C11.313 3.21511 11.6262 3.10263 11.9697 3.10156H18.0068ZM7.78223 3.10547C7.82706 3.10547 7.86958 3.12728 7.89648 3.16406L9.63965 5.54688L9.69336 5.62109C9.73567 5.67929 9.69578 5.76258 9.625 5.7627H0.90918V4.32031C0.909322 3.60879 1.44584 3.11133 2.24805 3.10547H7.78223ZM39.8877 3.10547C39.9569 3.10591 39.9973 3.18565 39.958 3.24414L39.9395 3.27148L38.3789 5.5918C38.2893 5.72061 38.2113 5.76266 38.0518 5.7627H36.1377V3.10547H39.8877ZM0.887695 0.00195312C0.937547 0.00196595 0.980249 0.00698562 1.01562 0.0175781C1.05112 0.0282594 1.08146 0.0416869 1.10547 0.0566406C1.12925 0.0714653 1.14763 0.0850101 1.16113 0.0966797L1.07812 0.242188C1.06043 0.223118 1.03421 0.205365 0.999023 0.189453C0.963584 0.172389 0.923649 0.164088 0.879883 0.164062C0.828942 0.164062 0.788047 0.175831 0.757812 0.200195C0.727539 0.223694 0.711914 0.259643 0.711914 0.306641C0.711971 0.348186 0.725845 0.384218 0.75293 0.414062C0.78004 0.442818 0.814794 0.469636 0.856445 0.494141C0.899104 0.517561 0.942573 0.541925 0.987305 0.566406C1.0321 0.590924 1.07204 0.619315 1.10645 0.652344C1.13463 0.677979 1.15888 0.710571 1.17871 0.749023C1.19837 0.78728 1.20893 0.830171 1.20898 0.87793C1.20898 0.950562 1.19161 1.0123 1.1582 1.0625C1.12589 1.11262 1.08255 1.15113 1.02734 1.17676C0.972016 1.20132 0.90881 1.21289 0.838867 1.21289C0.795058 1.21288 0.751751 1.20794 0.708984 1.19727C0.666184 1.18552 0.628132 1.1713 0.594727 1.15527C0.561437 1.13824 0.53622 1.12153 0.519531 1.10449L0.602539 0.952148C0.614024 0.961757 0.632277 0.974237 0.65625 0.990234C0.681248 1.00513 0.709928 1.01856 0.742188 1.03027C0.774457 1.04197 0.806598 1.04784 0.838867 1.04785C0.891971 1.04785 0.936232 1.03527 0.97168 1.00977C1.00822 0.984131 1.02734 0.946595 1.02734 0.897461C1.02732 0.856927 1.01597 0.823551 0.995117 0.796875C0.974246 0.770202 0.946527 0.746838 0.912109 0.726562C0.878745 0.706302 0.842343 0.687076 0.802734 0.668945C0.764109 0.649719 0.726899 0.627991 0.691406 0.604492C0.650796 0.576749 0.615176 0.539966 0.584961 0.494141C0.554745 0.448299 0.540097 0.38885 0.540039 0.316406C0.540039 0.244842 0.555596 0.185578 0.586914 0.139648C0.619267 0.0937657 0.661706 0.0595249 0.713867 0.0371094C0.767059 0.0136627 0.825129 0.00195312 0.887695 0.00195312ZM4.22559 0C4.30283 0 4.37641 0.0142217 4.44531 0.0419922C4.51511 0.0686405 4.57672 0.107978 4.62988 0.160156C4.68417 0.212494 4.72656 0.276794 4.75684 0.351562C4.7881 0.42628 4.80371 0.511471 4.80371 0.606445C4.80367 0.700278 4.78811 0.784714 4.75684 0.859375C4.72657 0.934065 4.68503 0.998395 4.63184 1.05176C4.57868 1.10401 4.51708 1.14412 4.44727 1.17188C4.37837 1.19965 4.30388 1.21289 4.22559 1.21289C4.14757 1.21283 4.07363 1.19952 4.00391 1.17188C3.93503 1.14411 3.87354 1.10407 3.82031 1.05176C3.76709 0.998364 3.72467 0.934121 3.69336 0.859375C3.66313 0.784714 3.64848 0.700278 3.64844 0.606445C3.64844 0.511525 3.66318 0.426249 3.69336 0.351562C3.72468 0.276794 3.76707 0.212494 3.82031 0.160156C3.87448 0.107965 3.93617 0.0686701 4.00488 0.0419922C4.07468 0.0142778 4.14851 5.66859e-05 4.22559 0ZM5.8125 0.697266C5.8125 0.822236 5.83065 0.912323 5.86719 0.966797C5.90475 1.01997 5.96466 1.04683 6.04688 1.04688C6.12934 1.04688 6.18905 1.02011 6.22559 0.967773C6.26202 0.915403 6.28027 0.825261 6.28027 0.697266V0.0195312H6.45703V0.694336C6.457 0.85868 6.42417 0.986401 6.35742 1.07715C6.29061 1.16794 6.18676 1.21289 6.04688 1.21289C5.94675 1.21286 5.86617 1.19202 5.80566 1.15039C5.74641 1.10879 5.70288 1.04937 5.67578 0.97168C5.6497 0.893757 5.63674 0.801061 5.63672 0.694336V0.0195312H5.8125V0.697266ZM10.3926 0C10.4698 0 10.5434 0.014221 10.6123 0.0419922C10.6821 0.0686571 10.7437 0.107968 10.7969 0.160156C10.8512 0.212494 10.8936 0.276794 10.9238 0.351562C10.9551 0.426259 10.9707 0.511507 10.9707 0.606445C10.9707 0.700267 10.9551 0.784721 10.9238 0.859375C10.8936 0.934069 10.852 0.998391 10.7988 1.05176C10.7456 1.1041 10.6832 1.1441 10.6133 1.17188C10.5445 1.19953 10.4707 1.21289 10.3926 1.21289C10.3146 1.21286 10.2406 1.1995 10.1709 1.17188C10.1021 1.14413 10.0405 1.10402 9.9873 1.05176C9.9341 0.998385 9.89166 0.934084 9.86035 0.859375C9.83012 0.784721 9.81548 0.700267 9.81543 0.606445C9.81543 0.511508 9.83016 0.426259 9.86035 0.351562C9.89167 0.276794 9.93406 0.212494 9.9873 0.160156C10.0415 0.107966 10.1031 0.0686579 10.1719 0.0419922C10.2417 0.0142563 10.3154 3.52738e-05 10.3926 0ZM11.9795 0.697266C11.9795 0.822236 11.9976 0.912323 12.0342 0.966797C12.0717 1.01998 12.1317 1.0468 12.2139 1.04688C12.2963 1.04688 12.356 1.02011 12.3926 0.967773C12.429 0.915412 12.4473 0.825314 12.4473 0.697266V0.0195312H12.624V0.694336C12.624 0.858713 12.5912 0.986399 12.5244 1.07715C12.4576 1.16794 12.3538 1.21289 12.2139 1.21289C12.1138 1.21285 12.0331 1.192 11.9727 1.15039C11.9134 1.10879 11.8699 1.04935 11.8428 0.97168C11.8167 0.89376 11.8037 0.801056 11.8037 0.694336V0.0195312H11.9795V0.697266ZM19.584 0.00195312C19.6341 0.00195312 19.6774 0.00689692 19.7129 0.0175781C19.7483 0.0282429 19.7778 0.0417254 19.8018 0.0566406C19.8257 0.0715653 19.8448 0.0849491 19.8584 0.0966797L19.7754 0.242188C19.7577 0.222974 19.7308 0.205467 19.6953 0.189453C19.6598 0.172363 19.62 0.164062 19.5762 0.164062C19.5252 0.164073 19.4843 0.175755 19.4541 0.200195C19.4238 0.223694 19.4082 0.259643 19.4082 0.306641C19.4083 0.348186 19.4221 0.384218 19.4492 0.414062C19.4763 0.442868 19.511 0.469599 19.5527 0.494141C19.5955 0.517619 19.6397 0.541862 19.6846 0.566406C19.7293 0.590923 19.7694 0.619335 19.8037 0.652344C19.8318 0.677952 19.8552 0.710652 19.875 0.749023C19.8947 0.787307 19.9052 0.830127 19.9053 0.87793C19.9053 0.950562 19.8879 1.0123 19.8545 1.0625C19.8221 1.11263 19.7789 1.15115 19.7236 1.17676C19.6683 1.20132 19.6051 1.21289 19.5352 1.21289C19.4914 1.21286 19.448 1.20792 19.4053 1.19727C19.3626 1.18553 19.3244 1.17126 19.291 1.15527C19.2578 1.13823 19.2325 1.12153 19.2158 1.10449L19.2988 0.952148C19.3103 0.961762 19.3285 0.974213 19.3525 0.990234C19.3776 1.00517 19.4062 1.01854 19.4385 1.03027C19.4707 1.04198 19.5029 1.04781 19.5352 1.04785C19.5884 1.04785 19.6335 1.0354 19.6689 1.00977C19.7053 0.984135 19.7236 0.946504 19.7236 0.897461C19.7236 0.857066 19.7131 0.823507 19.6924 0.796875C19.6716 0.770267 19.6437 0.746807 19.6094 0.726562C19.576 0.706268 19.5387 0.687103 19.499 0.668945C19.4606 0.649797 19.424 0.627876 19.3887 0.604492C19.3481 0.576799 19.3124 0.53989 19.2822 0.494141C19.252 0.448299 19.2364 0.38885 19.2363 0.316406C19.2363 0.244858 19.2519 0.185573 19.2832 0.139648C19.3156 0.0937328 19.358 0.0595403 19.4102 0.0371094C19.4634 0.0136211 19.5214 0.00196349 19.584 0.00195312ZM21.0459 0.00195312C21.0958 0.00195509 21.1384 0.00700281 21.1738 0.0175781C21.2093 0.0282594 21.2397 0.0416869 21.2637 0.0566406C21.2876 0.0715452 21.3068 0.0849621 21.3203 0.0966797L21.2373 0.242188C21.2196 0.22299 21.1926 0.205456 21.1572 0.189453C21.1217 0.172369 21.0819 0.164068 21.0381 0.164062C20.9871 0.164062 20.9463 0.175781 20.916 0.200195C20.8857 0.223694 20.8701 0.259643 20.8701 0.306641C20.8702 0.348186 20.884 0.384218 20.9111 0.414062C20.9383 0.442847 20.973 0.469614 21.0146 0.494141C21.0574 0.517604 21.1017 0.541878 21.1465 0.566406C21.191 0.590845 21.2304 0.619471 21.2646 0.652344C21.2928 0.677979 21.3171 0.710571 21.3369 0.749023C21.3566 0.787296 21.3671 0.830145 21.3672 0.87793C21.3672 0.950562 21.3498 1.0123 21.3164 1.0625C21.2841 1.11263 21.2408 1.15114 21.1855 1.17676C21.1302 1.20132 21.067 1.21289 20.9971 1.21289C20.9533 1.21287 20.9099 1.20793 20.8672 1.19727C20.8244 1.18552 20.7863 1.17128 20.7529 1.15527C20.7197 1.13823 20.6944 1.12153 20.6777 1.10449L20.7607 0.952148C20.7722 0.961762 20.7904 0.974213 20.8145 0.990234C20.8395 1.00516 20.8681 1.01854 20.9004 1.03027C20.9327 1.04198 20.9648 1.04782 20.9971 1.04785C21.0503 1.04785 21.0954 1.0354 21.1309 1.00977C21.1672 0.984136 21.1855 0.946471 21.1855 0.897461C21.1855 0.857093 21.175 0.823499 21.1543 0.796875C21.1335 0.770289 21.1055 0.746796 21.0713 0.726562C21.0379 0.706268 21.0006 0.687103 20.9609 0.668945C20.9225 0.649799 20.8859 0.627874 20.8506 0.604492C20.81 0.576809 20.7744 0.539867 20.7441 0.494141C20.7139 0.448299 20.6983 0.388849 20.6982 0.316406C20.6982 0.244842 20.7138 0.185578 20.7451 0.139648C20.7775 0.0937291 20.8199 0.0595368 20.8721 0.0371094C20.9253 0.0136247 20.9833 0.00195312 21.0459 0.00195312ZM23.8291 0C23.9064 0 23.9799 0.014221 24.0488 0.0419922C24.1186 0.0686523 24.1802 0.107973 24.2334 0.160156C24.2877 0.212494 24.3301 0.276794 24.3604 0.351562C24.3916 0.426268 24.4072 0.511493 24.4072 0.606445C24.4072 0.700278 24.3916 0.784714 24.3604 0.859375C24.3301 0.934076 24.2885 0.998388 24.2354 1.05176C24.1821 1.1041 24.1197 1.1441 24.0498 1.17188C23.981 1.19953 23.9072 1.21289 23.8291 1.21289C23.7511 1.21285 23.6772 1.1995 23.6074 1.17188C23.5386 1.14413 23.477 1.10403 23.4238 1.05176C23.3706 0.998377 23.3282 0.934098 23.2969 0.859375C23.2666 0.784714 23.252 0.700277 23.252 0.606445C23.252 0.511503 23.2667 0.426262 23.2969 0.351562C23.3282 0.276794 23.3706 0.212494 23.4238 0.160156C23.478 0.107969 23.5397 0.0686583 23.6084 0.0419922C23.6782 0.0142601 23.752 3.90186e-05 23.8291 0ZM30.0361 0C30.1132 4.77494e-06 30.1861 0.0143312 30.2549 0.0419922C30.3248 0.0686863 30.3872 0.107844 30.4404 0.160156C30.4947 0.212494 30.5371 0.276794 30.5674 0.351562C30.5986 0.42623 30.6143 0.511558 30.6143 0.606445C30.6142 0.700267 30.5987 0.784721 30.5674 0.859375C30.5371 0.934132 30.4946 0.998358 30.4414 1.05176C30.3882 1.10395 30.3266 1.14416 30.2568 1.17188C30.188 1.1996 30.1144 1.21289 30.0361 1.21289C29.9578 1.21289 29.8834 1.19965 29.8135 1.17188C29.7448 1.14416 29.684 1.1039 29.6309 1.05176C29.5777 0.998413 29.5352 0.934032 29.5039 0.859375C29.4737 0.784721 29.4581 0.700267 29.458 0.606445C29.458 0.511459 29.4737 0.426287 29.5039 0.351562C29.5352 0.276794 29.5776 0.212494 29.6309 0.160156C29.685 0.108007 29.7467 0.0686304 29.8154 0.0419922C29.8853 0.0142544 29.9589 0 30.0361 0ZM32.0117 0.00195312C32.0796 0.00195312 32.1384 0.00866689 32.1875 0.0214844C32.2375 0.0332239 32.2774 0.0465869 32.3066 0.0615234C32.3366 0.0752782 32.3559 0.086226 32.3643 0.0947266L32.2959 0.245117C32.2886 0.238741 32.2737 0.229517 32.252 0.216797C32.23 0.203984 32.1988 0.192319 32.1592 0.181641C32.1206 0.170959 32.0704 0.165039 32.0088 0.165039C31.9234 0.165052 31.8505 0.184411 31.79 0.222656C31.7296 0.25999 31.6827 0.311034 31.6504 0.375C31.6181 0.438958 31.6016 0.510103 31.6016 0.587891C31.6016 0.678657 31.6198 0.759596 31.6553 0.830078C31.6908 0.899506 31.7392 0.95462 31.8008 0.994141C31.8623 1.03246 31.9326 1.05176 32.0107 1.05176C32.0554 1.05173 32.1007 1.04586 32.1465 1.03418C32.1934 1.02244 32.2333 1.00234 32.2656 0.974609V0.74707H32.0293V0.582031H32.4395V1.04297C32.405 1.08783 32.3505 1.12793 32.2764 1.16211C32.2023 1.1962 32.1121 1.21289 32.0068 1.21289C31.9204 1.21283 31.8405 1.19791 31.7676 1.16699C31.6957 1.13609 31.6332 1.09335 31.5801 1.03906C31.5279 0.98352 31.4872 0.917542 31.458 0.842773C31.4299 0.766991 31.415 0.685168 31.415 0.597656C31.4151 0.511341 31.4298 0.431864 31.459 0.359375C31.4882 0.286743 31.5298 0.223328 31.583 0.169922C31.6362 0.116594 31.6995 0.0756853 31.7725 0.046875C31.8455 0.0170036 31.9252 0.00198653 32.0117 0.00195312ZM2.22559 0.5H2.63086V0.0195312H2.80664V1.19727H2.63086V0.650391H2.22559V1.19727H2.0498V0.0195312H2.22559V0.5ZM8.00195 0.176758H7.70508V1.19727H7.53125V0.176758H7.23633V0.0195312H8.00195V0.176758ZM13.7617 0.0195312C13.82 0.0195581 13.8765 0.025387 13.9307 0.0371094C13.9858 0.0488398 14.0345 0.06903 14.0771 0.0966797C14.1199 0.124451 14.1546 0.161102 14.1797 0.207031C14.2047 0.252944 14.2168 0.309706 14.2168 0.376953C14.2168 0.454743 14.1994 0.52249 14.1641 0.580078C14.1287 0.637606 14.0747 0.681926 14.0029 0.712891L14.2764 1.19727H14.0742L13.8428 0.751953C13.8251 0.753016 13.8033 0.75382 13.7773 0.754883H13.6709V1.19727H13.5V0.0195312H13.7617ZM16.4023 0.0195312C16.5024 0.0195605 16.5831 0.034575 16.6436 0.0644531C16.7039 0.0943297 16.7473 0.136184 16.7744 0.189453C16.8015 0.241699 16.8154 0.301906 16.8154 0.370117C16.8154 0.494988 16.7799 0.591806 16.709 0.660156C16.6381 0.727397 16.5306 0.761668 16.3867 0.761719H16.3252V1.19727H16.1484V0.0195312H16.4023ZM18.5205 1.19727H18.3184L18.2197 0.966797H17.6914L17.5928 1.19727H17.3975L17.9482 0.0175781H17.9658L18.5205 1.19727ZM22.3965 1.19727H22.2207V0.0195312H22.3965V1.19727ZM25.9492 0.790039L25.9434 0.655273V0.0195312H26.1182V1.19727H26.0947L25.4219 0.43457L25.4268 0.5625V1.19727H25.251V0.0175781H25.2734L25.9492 0.790039ZM28.7461 0.176758H28.4482V1.19727H28.2744V0.176758H27.9805V0.0195312H28.7461V0.176758ZM33.792 0.176758H33.4619V0.501953H33.7285V0.662109H33.4619V1.03906H33.8438V1.19727H33.2881V0.0195312H33.792V0.176758ZM35.3535 0.176758H35.0557V1.19727H34.8818V0.176758H34.5879V0.0195312H35.3535V0.176758ZM36.3135 0.5H36.7197V0.0195312H36.8945V1.19727H36.7197V0.650391H36.3135V1.19727H36.1387V0.0195312H36.3135V0.5ZM38.2803 0.176758H37.9502V0.501953H38.2158V0.662109H37.9502V1.03906H38.332V1.19727H37.7764V0.0195312H38.2803V0.176758ZM39.4248 0.0195312C39.4832 0.0195524 39.5396 0.0253812 39.5938 0.0371094C39.649 0.0488617 39.6984 0.0689281 39.7412 0.0966797C39.7838 0.124423 39.8178 0.161235 39.8428 0.207031C39.8678 0.252949 39.8799 0.309692 39.8799 0.376953C39.8799 0.454758 39.8625 0.522483 39.8271 0.580078C39.7917 0.637626 39.7378 0.681925 39.666 0.712891L39.9395 1.19727H39.7373L39.5059 0.751953C39.4882 0.753016 39.4664 0.75382 39.4404 0.754883H39.334V1.19727H39.1631V0.0195312H39.4248ZM4.22559 0.164062C4.15374 0.164137 4.08769 0.180739 4.02832 0.214844C3.96996 0.247955 3.92314 0.298117 3.8877 0.364258C3.85229 0.429335 3.83499 0.510405 3.83496 0.607422C3.83496 0.703553 3.85311 0.785339 3.88965 0.851562C3.9261 0.916422 3.97395 0.965896 4.0332 1C4.09257 1.0341 4.15687 1.05168 4.22559 1.05176C4.29657 1.05176 4.36237 1.03418 4.42188 1C4.48124 0.965863 4.529 0.916555 4.56445 0.851562C4.59995 0.785339 4.61719 0.703553 4.61719 0.607422C4.61716 0.510411 4.59985 0.429333 4.56445 0.364258C4.52896 0.298034 4.48138 0.247956 4.42188 0.214844C4.36343 0.180685 4.29759 0.164062 4.22559 0.164062ZM10.3926 0.164062C10.3207 0.164109 10.2547 0.180711 10.1953 0.214844C10.1369 0.247956 10.0902 0.29807 10.0547 0.364258C10.0193 0.42935 10.001 0.510366 10.001 0.607422C10.001 0.703553 10.0201 0.785339 10.0566 0.851562C10.0931 0.916428 10.1409 0.96591 10.2002 1C10.2596 1.03413 10.3238 1.05171 10.3926 1.05176C10.4636 1.05176 10.5294 1.03418 10.5889 1C10.6482 0.965856 10.696 0.916537 10.7314 0.851562C10.7669 0.785339 10.7842 0.703553 10.7842 0.607422C10.7842 0.510447 10.7668 0.429323 10.7314 0.364258C10.696 0.29807 10.6483 0.247956 10.5889 0.214844C10.5304 0.180664 10.4646 0.164062 10.3926 0.164062ZM23.8291 0.164062C23.7572 0.164114 23.6912 0.180715 23.6318 0.214844C23.5734 0.247956 23.5267 0.298075 23.4912 0.364258C23.4558 0.429346 23.4375 0.510374 23.4375 0.607422C23.4375 0.703553 23.4566 0.785339 23.4932 0.851562C23.5296 0.916432 23.5774 0.965905 23.6367 1C23.6961 1.03413 23.7603 1.0517 23.8291 1.05176C23.9001 1.05176 23.9659 1.03418 24.0254 1C24.0847 0.965854 24.1325 0.916544 24.168 0.851562C24.2035 0.785339 24.2207 0.703553 24.2207 0.607422C24.2207 0.510442 24.2033 0.429323 24.168 0.364258C24.1325 0.298057 24.0849 0.247956 24.0254 0.214844C23.9669 0.180664 23.9011 0.164062 23.8291 0.164062ZM30.0361 0.164062C29.9642 0.164062 29.8983 0.180725 29.8389 0.214844C29.7804 0.247952 29.7337 0.298046 29.6982 0.364258C29.6628 0.42937 29.6446 0.510309 29.6445 0.607422C29.6445 0.703553 29.6627 0.785339 29.6992 0.851562C29.7357 0.916607 29.7843 0.96586 29.8438 1C29.9032 1.03413 29.9673 1.05176 30.0361 1.05176C30.107 1.05175 30.172 1.03409 30.2314 1C30.2908 0.965898 30.3386 0.916499 30.374 0.851562C30.4095 0.785339 30.4277 0.703553 30.4277 0.607422C30.4277 0.510313 30.4095 0.429369 30.374 0.364258C30.3385 0.298034 30.2909 0.247956 30.2314 0.214844C30.1731 0.180821 30.108 0.164069 30.0361 0.164062ZM17.8877 0.519531L17.7617 0.804688H18.1504L18.0264 0.521484L17.959 0.359375H17.9561L17.8877 0.519531ZM13.6709 0.609375H13.7812C13.8387 0.609375 13.8855 0.601868 13.9199 0.586914C13.9553 0.571984 13.9822 0.552633 14.001 0.530273C14.0196 0.506862 14.0318 0.481666 14.0381 0.455078C14.0453 0.427547 14.0498 0.402235 14.0498 0.378906C14.0498 0.326568 14.0377 0.28479 14.0137 0.254883C13.9907 0.223929 13.9578 0.202265 13.916 0.189453C13.8754 0.175633 13.8285 0.168945 13.7754 0.168945H13.6709V0.609375ZM39.334 0.609375H39.4453C39.5025 0.609334 39.5487 0.601827 39.583 0.586914C39.6184 0.571979 39.6453 0.552649 39.6641 0.530273C39.6827 0.506848 39.6949 0.481684 39.7012 0.455078C39.7084 0.42754 39.7128 0.402241 39.7129 0.378906C39.7129 0.326568 39.7008 0.28479 39.6768 0.254883C39.6538 0.223947 39.6208 0.20226 39.5791 0.189453C39.5385 0.175649 39.4916 0.168945 39.4385 0.168945H39.334V0.609375ZM16.3252 0.602539H16.3906C16.4595 0.602539 16.5124 0.591766 16.5479 0.569336C16.5833 0.54691 16.6076 0.518451 16.6201 0.485352C16.6325 0.452438 16.6387 0.42045 16.6387 0.389648C16.6387 0.352285 16.6317 0.317184 16.6182 0.285156C16.6046 0.253303 16.5811 0.227245 16.5479 0.207031C16.5145 0.18679 16.4675 0.176811 16.4072 0.176758H16.3252V0.602539Z" fill="var(--fill-0, #F0F4F3)"/>
</svg>
