<svg preserveAspectRatio="none" width="100%" height="100%" overflow="visible" style="display: block;" viewBox="0 0 19 19" fill="none" xmlns="http://www.w3.org/2000/svg">
<g id="Frame">
<path id="Vector" d="M15.1495 13.5474L13.3271 11.6526L14.1776 10.7684L16 12.6632L15.1495 13.5474ZM12.9626 5.96842L12.1121 5.08421L13.9346 3.18947L14.785 4.07368L12.9626 5.96842ZM6.03738 5.96842L4.21495 4.07368L5.06542 3.18947L6.88785 5.08421L6.03738 5.96842ZM3.85047 13.5474L3 12.6632L4.82243 10.7684L5.6729 11.6526L3.85047 13.5474ZM7.58645 12.3632L9.5 11.1632L11.4136 12.3789L10.9124 10.1053L12.5981 8.58947L10.3808 8.38421L9.5 6.23684L8.61916 8.36842L6.40187 8.57368L8.08762 10.1053L7.58645 12.3632ZM5.74883 15L6.73598 10.5632L3.42523 7.57895L7.79907 7.18421L9.5 3L11.2009 7.18421L15.5748 7.57895L12.264 10.5632L13.2512 15L9.5 12.6474L5.74883 15Z" fill="var(--fill-0, #BDC4C6)"/>
</g>
</svg>
