<svg preserveAspectRatio="none" width="100%" height="100%" overflow="visible" style="display: block;" viewBox="0 0 312 42" fill="none" xmlns="http://www.w3.org/2000/svg">
  <defs>
    <filter id="outline" x="-5%" y="-10%" width="110%" height="120%" color-interpolation-filters="sRGB">
      <feMorphology in="SourceAlpha" operator="dilate" radius="1" result="dilated" />
      <feFlood flood-color="#000000" result="flood" />
      <feComposite in="flood" in2="dilated" operator="in" result="outline" />
      <feMerge>
        <feMergeNode in="outline" />
        <feMergeNode in="SourceGraphic" />
      </feMerge>
    </filter>
  </defs>
  <path d="M41.7793 11.4541H11.3945V15.2725H41.7793V42H0V30.5449H30.3848V26.7275H0V0H41.7793V11.4541ZM56.4297 30.5449H75.4199V0H86.8145V42H45.0352V0H56.4297V30.5449ZM116.657 30.5449H120.455V0H131.85V42H105.263V11.4541H101.465V42H90.0703V0H116.657V30.5449ZM176.885 30.5449H168.138L176.896 42H162.524L153.768 30.5459H146.499V42H135.105V0H176.885V30.5449ZM221.93 11.4541H206.737V30.5449H221.93V42H180.15V30.5449H195.343V11.4541H180.15V0H221.93V11.4541ZM266.965 11.4541H236.58V15.2725H266.965V42H225.186V30.5449H255.57V26.7275H225.186V0H266.965V11.4541ZM312 11.4541H281.615V15.2725H312V26.7275H281.615V30.5449H312V42H270.221V0H312V11.4541ZM146.499 19.0908H165.49V11.4541H146.499V19.0908Z" fill="#FFFFFF" filter="url(#outline)"/>
</svg>
