<svg preserveAspectRatio="none" width="100%" height="100%" overflow="visible" style="display: block;" viewBox="0 0 69 69" fill="none" xmlns="http://www.w3.org/2000/svg">
<path id="Subtract" d="M68.75 11.4326L68.583 11.4912C67.314 11.9404 66.4053 13.1481 66.4053 14.5693C66.4054 15.9902 67.3142 17.1962 68.583 17.6455L68.75 17.7041V20.8115L68.583 20.8701C67.314 21.3193 66.4053 22.527 66.4053 23.9482C66.4053 25.3693 67.314 26.5761 68.583 27.0254L68.75 27.084V30.1904L68.583 30.25C67.3142 30.6991 66.4055 31.9061 66.4053 33.3271C66.4053 34.7482 67.3141 35.955 68.583 36.4043L68.75 36.4629V39.5703L68.583 39.6289C67.314 40.0781 66.4053 41.2857 66.4053 42.707C66.4053 44.1279 67.3142 45.3339 68.583 45.7832L68.75 45.8428V48.9492L68.583 49.0088C67.3142 49.458 66.4054 50.6648 66.4053 52.0859C66.4053 53.507 67.3141 54.7138 68.583 55.1631L68.75 55.2217V58.3291L68.583 58.3877C67.314 58.8369 66.4053 60.0446 66.4053 61.4658C66.4054 62.8867 67.3142 64.0927 68.583 64.542L68.75 64.6016V68.75H65.7744L65.7158 68.583C65.2667 67.314 64.059 66.4053 62.6377 66.4053C61.2166 66.4054 60.0097 67.3142 59.5605 68.583L59.501 68.75H56.3955L56.3359 68.583C55.8867 67.3142 54.6799 66.4053 53.2588 66.4053C51.8375 66.4053 50.6298 67.314 50.1807 68.583L50.1221 68.75H47.0156L46.957 68.583C46.5078 67.314 45.3002 66.4053 43.8789 66.4053C42.4579 66.4054 41.2509 67.3142 40.8018 68.583L40.7422 68.75H37.6367L37.5781 68.583C37.129 67.314 35.9213 66.4053 34.5 66.4053C33.0787 66.4053 31.871 67.314 31.4219 68.583L31.3633 68.75H28.2578L28.1982 68.583C27.7491 67.3142 26.5422 66.4054 25.1211 66.4053C23.6998 66.4053 22.4922 67.314 22.043 68.583L21.9844 68.75H18.8779L18.8193 68.583C18.3702 67.314 17.1625 66.4053 15.7412 66.4053C14.3201 66.4053 13.1133 67.3142 12.6641 68.583L12.6045 68.75H9.49902L9.43945 68.583C8.99027 67.3142 7.78341 66.4054 6.3623 66.4053C4.94103 66.4053 3.73335 67.314 3.28418 68.583L3.22559 68.75H0.25V64.6016L0.416992 64.542C1.68579 64.0927 2.5946 62.8867 2.59473 61.4658C2.59473 60.0446 1.68598 58.8369 0.416992 58.3877L0.25 58.3291V55.2217L0.416992 55.1631C1.68595 54.7138 2.59473 53.507 2.59473 52.0859C2.59461 50.6648 1.68583 49.458 0.416992 49.0088L0.25 48.9492V45.8428L0.416992 45.7832C1.68581 45.3339 2.59467 44.1279 2.59473 42.707C2.59473 41.2857 1.68601 40.0781 0.416992 39.6289L0.25 39.5703V36.4629L0.416992 36.4043C1.68592 35.955 2.59473 34.7482 2.59473 33.3271C2.59454 31.9061 1.68581 30.6991 0.416992 30.25L0.25 30.1904V27.084L0.416992 27.0254C1.68598 26.5761 2.59473 25.3693 2.59473 23.9482C2.59471 22.527 1.68602 21.3193 0.416992 20.8701L0.25 20.8115V17.7041L0.416992 17.6455C1.68578 17.1962 2.59457 15.9902 2.59473 14.5693C2.59473 13.1481 1.68597 11.9404 0.416992 11.4912L0.25 11.4326V8.3252L0.416992 8.2666C1.68596 7.81731 2.59473 6.61049 2.59473 5.18945C2.59464 3.76833 1.68584 2.5615 0.416992 2.1123L0.25 2.05273V0.25H3.22559L3.28418 0.416992C3.73335 1.68599 4.94103 2.59473 6.3623 2.59473C7.78342 2.59463 8.99027 1.68584 9.43945 0.416992L9.49902 0.25H12.6045L12.6641 0.416992C13.1133 1.68585 14.3201 2.59465 15.7412 2.59473C17.1625 2.59473 18.3702 1.686 18.8193 0.416992L18.8779 0.25H21.9844L22.043 0.416992C22.4922 1.68596 23.6998 2.59473 25.1211 2.59473C26.5422 2.59455 27.7491 1.68581 28.1982 0.416992L28.2578 0.25H31.3633L31.4219 0.416992C31.871 1.68603 33.0787 2.59473 34.5 2.59473C35.9213 2.59473 37.129 1.68603 37.5781 0.416992L37.6367 0.25H40.7422L40.8018 0.416992C41.2509 1.68581 42.4578 2.59455 43.8789 2.59473C45.3002 2.59473 46.5078 1.68596 46.957 0.416992L47.0156 0.25H50.1221L50.1807 0.416992C50.6298 1.686 51.8375 2.59473 53.2588 2.59473C54.6799 2.59466 55.8867 1.68585 56.3359 0.416992L56.3955 0.25H59.501L59.5605 0.416992C60.0097 1.68584 61.2166 2.59463 62.6377 2.59473C64.059 2.59473 65.2667 1.68599 65.7158 0.416992L65.7744 0.25H68.75V2.05273L68.583 2.1123C67.3142 2.5615 66.4054 3.76833 66.4053 5.18945C66.4053 6.61049 67.314 7.81731 68.583 8.2666L68.75 8.3252V11.4326Z" fill="var(--fill-0, #F9FAFA)" stroke="var(--stroke-0, #575E60)" stroke-width="0.5"/>
</svg>
