<svg preserveAspectRatio="xMidYMid meet" width="100%" height="100%" overflow="visible" style="display: block;" viewBox="0 0 35.4734 19" fill="none" xmlns="http://www.w3.org/2000/svg">
<path id="Union" d="M9.86097 0C15.1751 4.96023e-06 19.5071 4.20331 19.7142 9.46715H19.7141C19.8859 13.7705 23.4297 17.2071 27.7756 17.2071C30.3231 17.2071 32.5945 16.0274 34.0745 14.1811L34.774 14.7419L35.4734 15.3026C33.6677 17.5551 30.8901 19 27.7756 19C22.4615 19 18.1295 14.7967 17.9224 9.53285L17.9225 9.53281C17.7506 5.22944 14.2069 1.79291 9.86097 1.7929C5.4051 1.7929 1.7929 5.4051 1.7929 9.86097H0C0 4.41491 4.4149 0 9.86097 0ZM6.37737 12.6946C7.20081 13.6996 8.44875 14.3385 9.84661 14.3385V16.1314C7.88877 16.1314 6.13986 15.2337 4.99049 13.8308L6.37737 12.6946ZM23.2934 9.49761C23.2934 11.9731 25.3002 13.9799 27.7757 13.9799C30.2512 13.9799 32.2579 11.9731 32.2579 9.49761H34.0508C34.0508 12.9633 31.2413 15.7728 27.7757 15.7728C24.31 15.7728 21.5005 12.9633 21.5005 9.49761H23.2934ZM7.97054 7.98004C9.0208 6.92978 10.7236 6.92978 11.7738 7.98004C12.8241 9.0303 12.8241 10.7331 11.7738 11.7833C10.7236 12.8336 9.02079 12.8336 7.97054 11.7833C6.92028 10.7331 6.92029 9.0303 7.97054 7.98004ZM25.8996 7.80075C26.9498 6.75049 28.6526 6.75049 29.7029 7.80075C30.7531 8.85101 30.7531 10.5538 29.7029 11.6041C28.6526 12.6543 26.9498 12.6543 25.8996 11.6041C24.8493 10.5538 24.8493 8.85101 25.8996 7.80075ZM10.5061 9.24781C10.156 8.89772 9.58839 8.89772 9.23831 9.24781C8.88823 9.59789 8.88822 10.1655 9.23831 10.5156C9.58839 10.8657 10.156 10.8657 10.5061 10.5156C10.8562 10.1655 10.8562 9.59789 10.5061 9.24781ZM28.4351 9.06852C28.085 8.71843 27.5174 8.71843 27.1673 9.06852C26.8173 9.4186 26.8173 9.9862 27.1673 10.3363C27.5174 10.6864 28.085 10.6864 28.4351 10.3363C28.7852 9.9862 28.7852 9.4186 28.4351 9.06852ZM9.92772 3.58156C13.356 3.62498 16.1218 6.41759 16.1218 9.8562H14.3289L14.3285 9.79824C14.2977 7.36875 12.3341 5.40506 9.90456 5.37429L9.84665 5.37394C7.37117 5.37394 5.36439 7.38071 5.36439 9.8562H3.57149L3.57197 9.77509C3.6154 6.34679 6.40805 3.58103 9.84665 3.58103L9.92772 3.58156ZM27.7756 3.22245C29.7335 3.22246 31.4824 4.12015 32.6318 5.52298L31.2449 6.65922C30.4214 5.65419 29.1735 5.01536 27.7756 5.01536C26.3778 5.01536 25.1298 5.65419 24.3064 6.65922L22.9195 5.52298C24.0689 4.12015 25.8178 3.22245 27.7756 3.22245Z" fill="var(--fill-0, #F9FAFA)"/>
</svg>
