<svg preserveAspectRatio="none" width="100%" height="100%" overflow="visible" style="display: block;" viewBox="0 0 29.1023 28.7533" fill="none" xmlns="http://www.w3.org/2000/svg">
<path id="Union" d="M12.6486 24.0975C13.7137 23.0324 15.4405 23.0324 16.5056 24.0975C17.5707 25.1626 17.5707 26.8895 16.5056 27.9545C15.4405 29.0196 13.7136 29.0196 12.6486 27.9545C11.5835 26.8895 11.5835 25.1626 12.6486 24.0975ZM15.2199 25.3832C14.8649 25.0282 14.2893 25.0282 13.9342 25.3832C13.5792 25.7382 13.5792 26.3138 13.9342 26.6688C14.2893 27.0239 14.8649 27.0239 15.2199 26.6688C15.5749 26.3138 15.5749 25.7382 15.2199 25.3832ZM0.0111862 7.09127C2.5251 7.10678 5.01632 7.7646 7.2327 9.03247C10.5925 10.9544 13.0466 14.1216 14.052 17.8394C14.3901 19.0894 14.555 20.3672 14.5511 21.6393L13.642 21.6365L12.7329 21.6337C12.7363 20.5225 12.5923 19.4063 12.2969 18.3141C11.4186 15.0661 9.27325 12.2944 6.3299 10.6107C4.38823 9.49993 2.2046 8.92302 0 8.90942L0.00559308 8.00037L0.0111862 7.09127ZM29.0967 8.00037L29.1023 8.90942C26.8977 8.92302 24.7141 9.49993 22.7724 10.6107C19.8291 12.2944 17.6837 15.0661 16.8054 18.3141C16.51 19.4063 16.366 20.5225 16.3694 21.6337L15.4603 21.6365L14.5512 21.6393C14.5473 20.3672 14.7122 19.0894 15.0503 17.8394C16.0557 14.1216 18.5098 10.9544 21.8696 9.03247C24.086 7.7646 26.5772 7.10678 29.0911 7.09127L29.0967 8.00037ZM3.96665 11.277C5.40926 11.8286 6.73487 12.6808 7.84811 13.794C9.92807 15.874 11.0966 18.695 11.0966 21.6365H9.27839C9.27839 19.1772 8.30144 16.8186 6.56246 15.0797C5.63172 14.1489 4.52353 13.4365 3.31732 12.9753L3.64198 12.1261L3.96665 11.277ZM25.4603 12.1261L25.785 12.9753C24.5788 13.4365 23.4706 14.1489 22.5399 15.0797C20.8009 16.8186 19.8239 19.1772 19.8239 21.6365H18.0057C18.0057 18.695 19.1742 15.874 21.2542 13.794C22.3674 12.6808 23.693 11.8286 25.1357 11.277L25.4603 12.1261ZM15.4603 12.7274H13.6421V0H15.4603V12.7274Z" fill="var(--fill-0, #F9FAFA)"/>
</svg>
