<svg width="38" height="38" viewBox="0 0 38 38" fill="none" xmlns="http://www.w3.org/2000/svg">
<path d="M11.1241 10.5133C16.4383 10.5133 20.7703 14.7166 20.9774 19.9805H20.9773C21.1491 24.2838 24.6929 27.7204 29.0388 27.7204C31.5863 27.7204 33.8576 26.5408 35.3377 24.6944L36.0372 25.2552L36.7366 25.8159C34.9309 28.0684 32.1533 29.5133 29.0388 29.5133C23.7247 29.5133 19.3927 25.31 19.1856 20.0462L19.1856 20.0461C19.0138 15.7427 15.4701 12.3062 11.1241 12.3062C6.66828 12.3062 3.05609 15.9184 3.05609 20.3743H1.26318C1.26318 14.9282 5.67809 10.5133 11.1241 10.5133ZM7.64055 23.2079C8.46399 24.2129 9.71193 24.8518 11.1098 24.8518V26.6447C9.15196 26.6447 7.40304 25.747 6.25368 24.3441L7.64055 23.2079ZM24.5566 20.0109C24.5566 22.4864 26.5634 24.4932 29.0389 24.4932C31.5143 24.4932 33.5211 22.4864 33.5211 20.0109H35.314C35.314 23.4766 32.5045 26.2861 29.0389 26.2861C25.5732 26.2861 22.7637 23.4766 22.7637 20.0109H24.5566ZM9.23372 18.4933C10.284 17.4431 11.9868 17.4431 13.037 18.4933C14.0873 19.5436 14.0873 21.2464 13.037 22.2967C11.9868 23.3469 10.284 23.3469 9.23372 22.2967C8.18347 21.2464 8.18347 19.5436 9.23372 18.4933ZM27.1628 18.3141C28.213 17.2638 29.9158 17.2638 30.9661 18.3141C32.0163 19.3643 32.0163 21.0671 30.9661 22.1174C29.9158 23.1676 28.213 23.1676 27.1628 22.1174C26.1125 21.0671 26.1125 19.3643 27.1628 18.3141ZM11.7693 19.7611C11.4192 19.411 10.8516 19.411 10.5015 19.7611C10.1514 20.1112 10.1514 20.6788 10.5015 21.0289C10.8516 21.379 11.4192 21.379 11.7693 21.0289C12.1193 20.6788 12.1193 20.1112 11.7693 19.7611ZM29.6983 19.5818C29.3482 19.2317 28.7806 19.2317 28.4305 19.5818C28.0804 19.9319 28.0804 20.4995 28.4305 20.8496C28.7806 21.1997 29.3482 21.1997 29.6983 20.8496C30.0484 20.4995 30.0484 19.9319 29.6983 19.5818ZM11.1909 14.0949C14.6192 14.1383 17.385 16.9309 17.385 20.3695H15.5921L15.5917 20.3115C15.5609 17.8821 13.5972 15.9184 11.1677 15.8876L11.1098 15.8872C8.63435 15.8872 6.62758 17.894 6.62758 20.3695H4.83468L4.83516 20.2884C4.87858 16.8601 7.67124 14.0943 11.1098 14.0943L11.1909 14.0949ZM29.0388 13.7358C30.9967 13.7358 32.7456 14.6335 33.8949 16.0363L32.5081 17.1725C31.6846 16.1675 30.4367 15.5287 29.0388 15.5287C27.641 15.5287 26.393 16.1675 25.5696 17.1725L24.1827 16.0363C25.3321 14.6335 27.081 13.7358 29.0388 13.7358Z" fill="#F9FAFA"/>
</svg>
