<svg width="38" height="38" viewBox="0 0 38 38" fill="none" xmlns="http://www.w3.org/2000/svg">
<path d="M7.79378 24.1938C9.5573 28.9375 14.1465 32.3207 19.5313 32.3207C24.1467 32.3207 28.1775 29.8358 30.3463 26.1367L31.9677 27.0872C29.4737 31.3408 24.8375 34.2 19.5313 34.2C13.3407 34.2 8.06224 30.3092 6.03223 24.8487L7.79378 24.1938ZM10.3899 19.8698C10.3899 24.9311 14.4865 29.0317 19.537 29.0318C22.0955 29.0318 24.4076 27.9808 26.0689 26.2836L27.412 27.5983C25.412 29.6414 22.6218 30.9111 19.537 30.9111C13.4459 30.9111 8.51048 25.9664 8.51048 19.8698H10.3899ZM20.4728 13.9306L20.4521 18.4432L22.7393 16.177L24.0621 17.512L21.9243 19.6302L24.8712 19.6438L24.8626 21.5231L21.7672 21.5088L23.9026 23.664L22.5676 24.9868L20.4319 22.8314L20.4124 27.0757L18.533 27.0671L18.5518 22.9718L16.4586 25.0461L15.1357 23.711L17.3785 21.4887L14.1587 21.4739L14.1673 19.5946L17.2386 19.6086L15.0336 17.3833L16.3686 16.0604L18.5733 18.2855L18.5934 13.922L20.4728 13.9306ZM22.334 12.5125L16.6959 12.5125V10.6331H22.334V12.5125ZM17.6155 4.62574C18.7164 3.52482 20.5014 3.52482 21.6023 4.62574C22.7032 5.72665 22.7032 7.51158 21.6023 8.61249C20.5014 9.7134 18.7164 9.7134 17.6155 8.61249C16.5146 7.51158 16.5146 5.72665 17.6155 4.62574ZM20.2734 5.95465C19.9064 5.58768 19.3114 5.58768 18.9444 5.95465C18.5775 6.32162 18.5775 6.9166 18.9444 7.28357C19.3114 7.65054 19.9064 7.65054 20.2734 7.28357C20.6404 6.9166 20.6403 6.32162 20.2734 5.95465Z" fill="#F9FAFA"/>
</svg>
