<svg width="38" height="38" viewBox="0 0 38 38" fill="none" xmlns="http://www.w3.org/2000/svg">
<path d="M17.0973 28.7208C18.1624 27.6557 19.8892 27.6557 20.9543 28.7208C22.0194 29.7859 22.0194 31.5127 20.9543 32.5778C19.8892 33.6429 18.1624 33.6429 17.0973 32.5778C16.0322 31.5127 16.0322 29.7859 17.0973 28.7208ZM19.6687 30.0065C19.3136 29.6514 18.738 29.6514 18.383 30.0065C18.0279 30.3615 18.028 30.9371 18.383 31.2921C18.738 31.6471 19.3136 31.6471 19.6687 31.2921C20.0237 30.9371 20.0237 30.3615 19.6687 30.0065ZM4.45992 11.7146C6.97383 11.7301 9.46505 12.3879 11.6814 13.6558C15.0413 15.5777 17.4954 18.7449 18.5008 22.4627C18.8388 23.7127 19.0037 24.9904 18.9998 26.2626L18.0907 26.2598L17.1816 26.257C17.1851 25.1458 17.041 24.0296 16.7457 22.9373C15.8673 19.6894 13.722 16.9177 10.7786 15.2339C8.83696 14.1232 6.65334 13.5463 4.44873 13.5327L4.45432 12.6237L4.45992 11.7146ZM33.5455 12.6237L33.551 13.5327C31.3464 13.5463 29.1628 14.1232 27.2211 15.2339C24.2778 16.9177 22.1325 19.6894 21.2541 22.9373C20.9587 24.0296 20.8147 25.1458 20.8181 26.257L19.909 26.2598L19 26.2626C18.9961 24.9904 19.161 23.7127 19.499 22.4627C20.5044 18.7449 22.9585 15.5777 26.3183 13.6558C28.5347 12.3879 31.0259 11.7301 33.5399 11.7146L33.5455 12.6237ZM8.41538 15.9003C9.858 16.4519 11.1836 17.3041 12.2968 18.4173C14.3768 20.4973 15.5453 23.3183 15.5453 26.2598H13.7271C13.7271 23.8005 12.7502 21.4419 11.0112 19.7029C10.0805 18.7722 8.97226 18.0598 7.76605 17.5986L8.09071 16.7494L8.41538 15.9003ZM29.9091 16.7494L30.2337 17.5986C29.0275 18.0598 27.9193 18.7722 26.9886 19.7029C25.2496 21.4419 24.2727 23.8005 24.2727 26.2598H22.4545C22.4545 23.3183 23.623 20.4973 25.7029 18.4173C26.8162 17.3041 28.1418 16.4519 29.5844 15.9003L29.9091 16.7494ZM19.909 17.3507H18.0908V4.62329H19.909V17.3507Z" fill="#F9FAFA"/>
</svg>
