<svg preserveAspectRatio="none" width="100%" height="100%" overflow="visible" style="display: block;" viewBox="0 0 25.9354 30.4" fill="none" xmlns="http://www.w3.org/2000/svg">
<path id="Union" d="M1.76155 20.3938C3.52507 25.1374 8.11425 28.5206 13.4991 28.5206C18.1144 28.5206 22.1452 26.0358 24.3141 22.3366L25.9354 23.2872C23.4415 27.5407 18.8053 30.4 13.4991 30.4C7.30849 30.4 2.03001 26.5091 0 21.0486L1.76155 20.3938ZM4.35763 16.0697C4.35763 21.131 8.45423 25.2317 13.5047 25.2317C16.0633 25.2317 18.3753 24.1808 20.0367 22.4836L21.3798 23.7982C19.3798 25.8414 16.5896 27.1111 13.5047 27.1111C7.41367 27.1111 2.47825 22.1664 2.47825 16.0697H4.35763ZM14.4406 10.1306L14.4198 14.6431L16.7071 12.3769L18.0298 13.712L15.892 15.8301L18.8389 15.8437L18.8303 17.7231L15.7349 17.7088L17.8704 19.8639L16.5353 21.1867L14.3996 19.0313L14.3802 23.2757L12.5008 23.2671L12.5195 19.1717L10.4263 21.246L9.10352 19.911L11.3463 17.6887L8.12648 17.6739L8.13511 15.7945L11.2064 15.8086L9.00139 13.5832L10.3364 12.2604L12.5411 14.4855L12.5612 10.122L14.4406 10.1306ZM16.3018 8.71243H10.6636V6.83305H16.3018V8.71243ZM11.5833 0.825687C12.6842 -0.275229 14.4692 -0.275229 15.5701 0.825687C16.671 1.9266 16.671 3.71153 15.5701 4.81244C14.4692 5.91336 12.6842 5.91336 11.5833 4.81244C10.4824 3.71153 10.4824 1.9266 11.5833 0.825687ZM14.2412 2.1546C13.8742 1.78763 13.2792 1.78763 12.9122 2.1546C12.5453 2.52158 12.5452 3.11656 12.9122 3.48352C13.2792 3.85049 13.8742 3.85049 14.2412 3.48352C14.6081 3.11656 14.6081 2.52158 14.2412 2.1546Z" fill="var(--fill-0, #F9FAFA)"/>
</svg>
