<svg preserveAspectRatio="none" width="100%" height="100%" overflow="visible" style="display: block;" viewBox="0 0 68 68" fill="none" xmlns="http://www.w3.org/2000/svg">
<path id="Subtract" d="M2.54863 0C3.03179 1.36549 4.33107 2.34483 5.86207 2.34483C7.39307 2.34483 8.69234 1.36549 9.17551 0H11.9279C12.4111 1.36549 13.7104 2.34483 15.2414 2.34483C16.7724 2.34483 18.0717 1.36549 18.5548 0H21.3072C21.7904 1.36549 23.0897 2.34483 24.6207 2.34483C26.1517 2.34483 27.451 1.36549 27.9341 0H30.6866C31.1697 1.36549 32.469 2.34483 34 2.34483C35.531 2.34483 36.8303 1.36549 37.3134 0H40.0659C40.549 1.36549 41.8483 2.34483 43.3793 2.34483C44.9103 2.34483 46.2096 1.36549 46.6928 0H49.4452C49.9283 1.36549 51.2276 2.34483 52.7586 2.34483C54.2896 2.34483 55.5889 1.36549 56.0721 0H58.8245C59.3077 1.36549 60.6069 2.34483 62.1379 2.34483C63.6689 2.34483 64.9682 1.36549 65.4514 0H68V1.37621C66.6345 1.85938 65.6552 3.15866 65.6552 4.68966C65.6552 6.22052 66.6347 7.51868 68 8.00195V10.7555C66.6345 11.2387 65.6552 12.538 65.6552 14.069C65.6552 15.5998 66.6347 16.898 68 17.3813V20.1348C66.6345 20.618 65.6552 21.9173 65.6552 23.4483C65.6552 24.9791 66.6347 26.2773 68 26.7606V29.5141C66.6345 29.9973 65.6552 31.2966 65.6552 32.8276C65.6552 34.3585 66.6347 35.6566 68 36.1399V38.8935C66.6345 39.3766 65.6552 40.6759 65.6552 42.2069C65.6552 43.7378 66.6347 45.0359 68 45.5192V48.2728C66.6345 48.7559 65.6552 50.0552 65.6552 51.5862C65.6552 53.1171 66.6347 54.4152 68 54.8985V57.6521C66.6345 58.1352 65.6552 59.4345 65.6552 60.9655C65.6552 62.4964 66.6347 63.7945 68 64.2778V68H65.4514C64.9682 66.6345 63.6689 65.6552 62.1379 65.6552C60.6069 65.6552 59.3077 66.6345 58.8245 68H56.0721C55.5889 66.6345 54.2896 65.6552 52.7586 65.6552C51.2276 65.6552 49.9283 66.6345 49.4452 68H46.6928C46.2096 66.6345 44.9103 65.6552 43.3793 65.6552C41.8483 65.6552 40.549 66.6345 40.0659 68H37.3134C36.8303 66.6345 35.531 65.6552 34 65.6552C32.469 65.6552 31.1697 66.6345 30.6866 68H27.9341C27.451 66.6345 26.1517 65.6552 24.6207 65.6552C23.0897 65.6552 21.7904 66.6345 21.3072 68H18.5548C18.0717 66.6345 16.7724 65.6552 15.2414 65.6552C13.7104 65.6552 12.4111 66.6345 11.9279 68H9.17551C8.69234 66.6345 7.39307 65.6552 5.86207 65.6552C4.33107 65.6552 3.03179 66.6345 2.54863 68H0V64.2778C1.3653 63.7945 2.34483 62.4964 2.34483 60.9655C2.34483 59.4345 1.36549 58.1352 0 57.6521V54.8985C1.3653 54.4152 2.34483 53.1171 2.34483 51.5862C2.34483 50.0552 1.36549 48.7559 0 48.2728V45.5192C1.3653 45.0359 2.34483 43.7378 2.34483 42.2069C2.34483 40.6759 1.36549 39.3766 0 38.8935V36.1399C1.3653 35.6566 2.34483 34.3585 2.34483 32.8276C2.34483 31.2966 1.36549 29.9973 0 29.5141V26.7606C1.3653 26.2773 2.34483 24.9791 2.34483 23.4483C2.34483 21.9173 1.36549 20.618 0 20.1348V17.3813C1.3653 16.898 2.34483 15.5998 2.34483 14.069C2.34483 12.538 1.36549 11.2387 0 10.7555V8.00195C1.3653 7.51868 2.34483 6.22052 2.34483 4.68966C2.34483 3.15866 1.36549 1.85938 0 1.37621V0H2.54863Z" fill="var(--fill-0, white)"/>
</svg>
