<svg preserveAspectRatio="none" width="100%" height="100%" overflow="visible" style="display: block;" viewBox="0 0 66 33" fill="none" xmlns="http://www.w3.org/2000/svg">
  <path id="Vector" d="M28.2563 16.5C26.9729 16.5 25.9188 16.0188 25.0938 15.0563C24.2688 14.0938 23.9708 12.9708 24.2 11.6875L25.025 6.7375C25.3917 4.76667 26.3198 3.15104 27.8094 1.89063C29.299 0.630208 31.0292 0 33 0C35.0167 0 36.7698 0.630208 38.2594 1.89063C39.749 3.15104 40.6771 4.76667 41.0438 6.7375L41.8688 11.6875C42.0979 12.9708 41.8 14.0938 40.975 15.0563C40.15 16.0188 39.0958 16.5 37.8125 16.5H28.2563ZM29.9063 11H36.1625L35.6125 7.63125C35.5208 6.98958 35.2229 6.47396 34.7188 6.08438C34.2146 5.69479 33.6417 5.5 33 5.5C32.3583 5.5 31.7969 5.69479 31.3156 6.08438C30.8344 6.47396 30.5479 6.98958 30.4563 7.63125L29.9063 11ZM8.525 19.1813C7.47083 19.2271 6.56563 19.0208 5.80938 18.5625C5.05313 18.1042 4.56042 17.3938 4.33125 16.4313C4.23958 16.0188 4.21667 15.6063 4.2625 15.1938C4.30833 14.7813 4.42292 14.3917 4.60625 14.025C4.60625 14.0708 4.58333 13.9792 4.5375 13.75C4.44583 13.6583 4.21667 13.1083 3.85 12.1C3.75833 11.55 3.82708 11.0229 4.05625 10.5188C4.28542 10.0146 4.58333 9.57917 4.95 9.2125L5.0875 9.075C5.17917 8.20417 5.53438 7.47083 6.15313 6.875C6.77188 6.27917 7.53958 5.98125 8.45625 5.98125C8.59375 5.98125 9.02917 6.07292 9.7625 6.25625L9.96875 6.1875C10.1979 5.95833 10.4958 5.78646 10.8625 5.67188C11.2292 5.55729 11.6188 5.5 12.0313 5.5C12.5354 5.5 12.9823 5.58021 13.3719 5.74063C13.7615 5.90104 14.0708 6.14167 14.3 6.4625C14.3458 6.4625 14.3802 6.47396 14.4031 6.49688C14.426 6.51979 14.4604 6.53125 14.5063 6.53125C15.1479 6.57708 15.7094 6.77188 16.1906 7.11563C16.6719 7.45938 17.0271 7.92917 17.2563 8.525C17.3479 8.84583 17.3823 9.15521 17.3594 9.45313C17.3365 9.75104 17.2792 10.0375 17.1875 10.3125C17.1875 10.3583 17.2104 10.45 17.2563 10.5875C17.5771 10.9083 17.8292 11.2635 18.0125 11.6531C18.1958 12.0427 18.2875 12.4438 18.2875 12.8563C18.2875 13.0396 18.15 13.5208 17.875 14.3C17.8292 14.3917 17.8292 14.4833 17.875 14.575L18.0125 15.675C18.0125 16.6375 17.6115 17.4625 16.8094 18.15C16.0073 18.8375 15.0333 19.1813 13.8875 19.1813H8.525ZM55 19.25C53.4875 19.25 52.1927 18.7115 51.1156 17.6344C50.0385 16.5573 49.5 15.2625 49.5 13.75C49.5 13.2 49.5802 12.6844 49.7406 12.2031C49.901 11.7219 50.1188 11.2521 50.3938 10.7938L48.4688 9.075C48.0104 8.70833 47.9302 8.25 48.2281 7.7C48.526 7.15 48.95 6.875 49.5 6.875H55C56.5125 6.875 57.8073 7.41354 58.8844 8.49063C59.9615 9.56771 60.5 10.8625 60.5 12.375V13.75C60.5 15.2625 59.9615 16.5573 58.8844 17.6344C57.8073 18.7115 56.5125 19.25 55 19.25ZM0 33V28.6688C0 26.6521 1.01979 25.0365 3.05938 23.8219C5.09896 22.6073 7.74583 22 11 22C11.5958 22 12.1688 22.0115 12.7188 22.0344C13.2688 22.0573 13.7958 22.1146 14.3 22.2063C13.6583 23.1229 13.1771 24.1083 12.8563 25.1625C12.5354 26.2167 12.375 27.3396 12.375 28.5313V33H0ZM16.5 33V28.5313C16.5 25.5521 18.024 23.1458 21.0719 21.3125C24.1198 19.4792 28.0958 18.5625 33 18.5625C37.95 18.5625 41.9375 19.4792 44.9625 21.3125C47.9875 23.1458 49.5 25.5521 49.5 28.5313V33H16.5ZM55 22C58.3 22 60.9583 22.6073 62.975 23.8219C64.9917 25.0365 66 26.6521 66 28.6688V33H53.625V28.5313C53.625 27.3396 53.476 26.2167 53.1781 25.1625C52.8802 24.1083 52.4333 23.1229 51.8375 22.2063C52.3417 22.1146 52.8573 22.0573 53.3844 22.0344C53.9115 22.0115 54.45 22 55 22ZM33 24.0625C30.3875 24.0625 28.05 24.4063 25.9875 25.0938C23.925 25.7813 22.7104 26.5833 22.3438 27.5H43.725C43.3125 26.5833 42.0865 25.7813 40.0469 25.0938C38.0073 24.4063 35.6583 24.0625 33 24.0625Z" fill="var(--fill-0, #FF5976)"/>
</svg>
